<?xml version="1.0" encoding="UTF-8"?>
<svg width="83px" height="33px" viewBox="0 0 83 33" version="1.1" xmlns="http://www.w3.org/2000/svg" xmlns:xlink="http://www.w3.org/1999/xlink">
    <!-- Generator: Sketch 49.3 (51167) - http://www.bohemiancoding.com/sketch -->
    <title>Sharp Logo-white</title>
    <desc>Created with Sketch.</desc>
    <defs>
        <polygon id="path-1" points="0.0321428571 0.414393443 14.8103571 0.414393443 14.8103571 32.5022951 0.0321428571 32.5022951"></polygon>
    </defs>
    <g id="Page-1" stroke="none" stroke-width="1" fill="none" fill-rule="evenodd">
        <g id="Desktop-HD" transform="translate(-296.000000, -802.000000)">
            <g id="Navigation" transform="translate(-8.000000, 781.000000)">
                <g id="Sharp-Logo-white" transform="translate(304.000000, 21.000000)">
                    <g id="Group-3">
                        <mask id="mask-2" fill="white">
                            <use xlink:href="#path-1"></use>
                        </mask>
                        <g id="Clip-2"></g>
                        <path d="M14.8103571,20.9014426 C14.8103571,18.5600656 14.2419643,17.4326557 12.37875,16.0769508 L6.93214286,11.9979344 C6.05142857,11.3693115 5.73803571,10.7742295 5.73803571,9.7252623 L5.73803571,6.70170492 C5.73803571,5.77986885 6.22017857,5.29352459 7.1325,5.29352459 L7.63232143,5.29352459 C8.54464286,5.29352459 9.02678571,5.77986885 9.02678571,6.70170492 L9.02678571,10.7320328 L14.7198214,7.9264918 L14.7198214,6.10554098 C14.7198214,2.27645902 12.8764286,0.414393443 9.08357143,0.414393443 L5.63678571,0.414393443 C1.84392857,0.414393443 0,2.27645902 0,6.10554098 L0,11.1902459 C0,13.4748197 0.613392857,14.6920328 2.43214286,16.0158197 L7.87821429,20.0948361 C8.75892857,20.722918 9.07232143,21.318 9.07232143,22.3675082 L9.07232143,26.2149836 C9.07232143,27.1368197 8.59017857,27.6231639 7.67785714,27.6231639 L7.0875,27.6231639 C6.17517857,27.6231639 5.69303571,27.1368197 5.69303571,26.2149836 L5.69303571,21.3796721 L0,24.1067705 L0,26.8100656 C0,30.6402295 1.84392857,32.5022951 5.63678571,32.5022951 L9.17464286,32.5022951 C12.9669643,32.5022951 14.8103571,30.6402295 14.8103571,26.8100656 L14.8103571,20.9014426" id="Fill-1" fill="#FFFFFE" mask="url(#mask-2)"></path>
                    </g>
                    <polyline id="Fill-4" fill="#FFFFFE" points="33 32 33 1 26.9267995 1 26.9267995 14.9762423 23.0748753 14.9762423 23.0748753 1 17 1 17 32 23.0748753 32 23.0748753 20.0869856 26.9267995 20.0869856 26.9267995 32 33 32"></polyline>
                    <path d="M41.1746027,6.069266 L43.0032636,20.573014 L39.613916,20.573014 L41.1746027,6.069266 Z M43.5120264,25.5486903 L44.0285565,32 L50,32 L45.7506935,1 L37.2515257,1 L33,32 L38.4133024,32 L39.0579942,25.5486903 L43.5120264,25.5486903 Z" id="Fill-5" fill="#FFFFFE"></path>
                    <path d="M56.8679944,15.2277647 L56.8679944,5.97514452 L58.6825323,5.97514452 C59.6013948,5.97514452 60.0872488,6.45426008 60.0872488,7.35984699 L60.0872488,13.843594 C60.0872488,14.7491809 59.6013948,15.2277647 58.6825323,15.2277647 L56.8679944,15.2277647 Z M60.1325448,21.4525447 L60.1325448,32 L66,32 L66,21.4073451 C66,19.2133043 65.2477622,18.1109663 63.4057231,17.6047309 L62.6243664,17.3899 L63.3863105,17.1123214 C65.1625625,16.4672968 65.9541647,15.0974836 65.9541647,12.6721272 L65.9541647,6.5941129 C65.9541647,2.82978541 64.0981055,1 60.2808355,1 L51,1 L51,32 L56.8679944,32 L56.8679944,20.0678423 L58.7289068,20.0678423 C59.6466909,20.0678423 60.1325448,20.5469578 60.1325448,21.4525447 Z" id="Fill-6" fill="#FFFFFE"></path>
                    <path d="M77.0420561,13.7946721 C77.0420561,14.6997273 76.5486638,15.1793746 75.6160923,15.1793746 L73.9590391,15.1793746 L73.9590391,5.88527712 L75.6160923,5.88527712 C76.5486638,5.88527712 77.0420561,6.36439268 77.0420561,7.26997959 L77.0420561,13.7946721 Z M83,6.5941129 C83,2.82978541 81.1156907,1 77.2386463,1 L68,1 L68,32 L73.9590391,32 L73.9590391,19.9232036 L77.2386463,19.9232036 C81.1156907,19.9232036 83,18.0928864 83,14.3285589 L83,6.5941129 Z" id="Fill-7" fill="#FFFFFE"></path>
                </g>
            </g>
        </g>
    </g>
</svg>